<?xml version="1.0" encoding="UTF-8"?>
<svg id="Layer_2" data-name="Layer 2" xmlns="http://www.w3.org/2000/svg" viewBox="0 0 1280 720">
  <defs>
    <style>
      .cls-1 {
        fill: none;
        stroke: #000;
        stroke-linecap: round;
        stroke-linejoin: round;
        stroke-width: 4px;
      }
    </style>
  </defs>
  <path class="cls-1" d="M1000.43,210.65c-13.21-16.73,7.66-24.85-.95-47.77-4.57-12.17-24.78-20.25-30.21-34.04s3.8-33.54-1.4-45.54c-8.21-18.96-28.28-24.64-32.51-28.57-3.33-3.09,5.17-17.53,2.48-20.47-3.14-3.44-16.66,5.3-19.81,3.01-3.47-2.52-2.83-18.5-7.53-18.32-3.48,.13-3.77,16.41-8.53,18.66-6.78,3.2-21.97,2.69-23.63,12.94-1.24,7.65,14.61,17,15.57,26.09,.9,8.53-12.99,20.33-10.63,28.31,2.73,9.25,20.59,10.78,24.6,16.72,4.44,6.57-4.45,27.15,.93,43.69,3.83,11.76,23.01,20.43,26.58,33.66s-8.56,30.68-5.84,42.53c4.54,19.73,23.19,33.91,22.91,37.9-.2,2.87-16.03,5.43-15.97,8.08,.08,3.53,14.35,11.22,13.08,12.89s-7.1-10.4-11.43-12.02c-2.05-.77-11.29,12.48-14.34,10.75-6.56-3.72-4.47-29.5-14.45-49.28-6.45-12.78-27.7-20.48-34.57-35.19s.69-36.31-5.8-49.17c-9.57-18.97-30.36-24.05-37.09-29.23-5.37-4.14,2.07-20.06-1.57-26.03-3.54-5.81-20.6-4.68-23.4-10.87-2.98-6.59,8.43-20.33,5.26-25.79-3.88-6.69-18.1-.44-24.06-2.72-5.6-2.15-5.39-19.88-10.58-21.77-5.99-2.18-11.22,11.62-16.61,13.99-4.14,1.82-18.33-5.52-22.09,1.34-2.3,4.19,10.11,15.81,7.97,22.5-2.79,8.69-18.38,16.53-16.77,25.07s19.89,11.6,24.05,19.27c4.43,8.14-3.47,24.43,1.59,30.62,9.53,11.66,21.55-1.17,30.31,8.65,6.91,7.75-8.42,16.59-2.54,27.17,3.03,5.46,20.56,4.28,23.87,10.86,3.11,6.2-8.38,19.31-5.79,25.52,2.97,7.09,20.55,9.08,21.82,14.85s-10.49,18.45-6.56,25.67c3.35,6.15,20.99,4.16,25.12,10.23,4.34,6.37-4.14,21.81-.13,27.04,7.72,10.04,20.06-1.43,26.51,7.37,3.67,5-10.97,12.65-9.08,18.52,1.46,4.53,16.32,11.52,14.38,14.23-1.62,2.25-9.27-9.25-15.77-11.23-3.08-.94-12.83,12.26-17.39,9.92-9.41-4.83-11.42-25.06-21.88-32.63-9.46-6.85-28.91-1.9-37.92-9.62-9.61-8.23-7.73-28.3-15.38-35.98-11.48-11.54-32.78-12.45-35.61-18.31-2.34-4.84,5.41-20.58-1.32-27.6-5.11-5.33-21.87,.93-28.13-4.08s-4.42-23.09-10.78-26.43c-8.7-4.58-17.73,7.82-23.43,9.88-4.61,1.67-15.82-10.7-19.38-8.44-4.19,2.66,3.83,16.35,1.78,20.17s-17.79,5.43-17.06,10.63c.54,3.85,17.02,3.49,19.4,8.3,2.69,5.45-6.86,19.87-2.22,25.9,4.14,5.38,20.97,.42,25.73,5.47,5.07,5.38-.83,21.88,3.92,26.01,7.45,6.48,20.47-3.06,23.83-2.48,3.13,.53-.18,15.98,2.03,17.43,2.06,1.35,14.52-8.54,16.59-6,1.5,1.84-9.61,13.73-7.74,16.37,1.43,2.01,16.07-4.95,17.87-2.4,3.25,4.62,1.75,24.24,14.56,34.83,8.45,6.99,28.22,2.38,37.77,10.18,9.58,7.82,8.77,27.91,17,35.11,12.64,11.06,34.94,11.6,37.01,16.88,4.02,10.25,4.23,11.29-9.61,7.18-4.64-1.38-16.62,11.26-26.34,7.46-5.85-2.29-6.85-19.92-14.99-23.2-6.21-2.51-19.14,9.52-26.86,6.39-11.8-4.79-15.81-23.99-24.99-28.23-12.06-5.57-29.18,3.67-37.71-.87-12.62-6.72-14.46-26.39-22.39-30.62-11.96-6.37-24.31,5.32-35.99,5.48-6.39,.09-15.42-13.83-19.6-11.73-5.53,2.77,2.35,16.05,1.14,21.13-1.13,4.74-15.06,12.19-11.99,17.78,2.28,4.15,17.96-1.56,22.75,2.51,6.85,5.84,15.6,30.36,38.17,44.28,14.95,9.22,40.19,5.8,57.04,16.01,16.94,10.27,25.45,34.16,40.27,43.38,23.92,14.87,52.59,14.86,57.18,19.93,4.2,4.64,.36,24.38,9.96,35.45,6.73,7.76,26.36,6.09,33.68,14.86s2.13,27.74,8.35,35.8c9.31,12.05,30.23,14.61,32.15,19.91s-4.95,21.5,3.63,30.03c6.04,6.01,23.76,.34,31.25,6.2,7.5,5.87,6.45,24.54,13.86,28.76,10.03,5.71,22.55-5.7,29.06-6.25s8.57,15.96,12.75,17.82c4.64,2.07,14.81-9.86,20.19-7.8,4.09,1.56,6.15,18.14,12.61,18.09,4.37-.03,7.76-16.41,13.86-17.71,10.42-2.22,34.34,5.21,55.95-5.26,15.35-7.44,24.62-30.44,40.85-39.87,16.63-9.66,41.44-6.54,54.77-16.38,21.54-15.89,23.35-35.86,21.72-45.59-.53-3.15,14.33-9.59,13.61-11.79-1.1-3.36-15.97,2.13-17.34,.59-2.38-2.67-1.01-16.09-3.35-15.49-3.78,.96-.93,20.21-5.02,20.12s6.83-10.58,7.39-15.4c.28-2.41-13.85-10.07-12.24-12.86,1.23-2.15,15.13,5.72,17.56,3.63,1.89-1.63-4.71-16.36-1.9-17.82,6.04-3.14,18.16-9.2,15.89-24.54-1.43-9.62-19.59-17.3-22.54-28.22-2.91-10.75,9.09-26.06,6-35.46-5.75-17.5-24.27-10.93-26.25-26.93-1.86-15.07,17.61-12.53,20.36-29.74,1.46-9.15-12.58-22.24-10.7-32.62s19.58-17.49,21.64-26.57c3.25-14.31-7.07-32.72-4.12-35.87,2.51-2.68,17.6-.98,18.12-6.29,.41-4.18-15.6-9.05-15.93-13.68s14.96-11.12,14.32-15.18c-1.19-7.63-19.6-6.94-18.28-13.55,2.22-11.15,19.71-4.96,23.45-17.45,1.98-6.62-11.77-17.58-10.76-25.51s17.03-15.49,15.91-22.86c-1.16-7.63-17.98-8.68-22.69-14.69-6.88-8.79-15.05-18.37-25.4-11.03-7.19,5.1-3.72,24.33-10.56,32.96-6.42,8.1-25.54,8.05-30.24,16.28-7.26,12.72,3.08,26.01,4.08,30.27s-15.36,16.78-17.54,31.16c-1.42,9.36,12.19,23,9.57,33.25s-20.97,15.34-24.73,23.91c-5.34,12.18-2.48,32.12-9.74,33.92-8.42,2.09-15.95-12.1-22.06-12.75s-17.91,10.48-24.8,4.14c-4.18-3.84,2.89-19.86-2.53-26.7-3.82-4.82-20.81-.84-25.53-7.44-5.41-7.55,3.35-23.73-.81-31.26-4.59-8.32-22.84-9.5-26.1-17.2-3.91-9.25,8.09-23.32,5.8-30.72-4.86-15.7-16.69-8.27-21.57-20.79"/>
</svg>